<svg viewBox="0 0 1333.3333 333.33334" width="220" id="svg2" version="1.1" xmlns="http://www.w3.org/2000/svg">
  <defs id="defs6">
    <clipPath id="clipPath18" clipPathUnits="userSpaceOnUse">
      <path id="path16" d="M 0,250 H 1000 V 0 H 0 Z"></path>
    </clipPath>
    <clipPath id="clipPath178" clipPathUnits="userSpaceOnUse">
      <path id="path176" d="M 3.59619,229.207 H 998.388 V 113.301 H 3.59619 Z"></path>
    </clipPath>
    <linearGradient id="linearGradient190" spreadMethod="pad" gradientTransform="matrix(-5.4e-6,123.4901,123.4901,5.4e-6,500.99219,77.134766)" gradientUnits="userSpaceOnUse" y2="0" x2="1" y1="0" x1="0">
      <stop id="stop184" offset="0" style="stop-opacity:1;stop-color:#ffffff"></stop>
      <stop id="stop186" offset="0.2519" style="stop-opacity:1;stop-color:#000000"></stop>
      <stop id="stop188" offset="1" style="stop-opacity:1;stop-color:#000000"></stop>
    </linearGradient>
  </defs>
  <g transform="matrix(1.3333333,0,0,-1.3333333,0,333.33333)" id="g10">
    <g id="g12">
      <g clip-path="url(#clipPath18)" id="g14">
        <g transform="translate(29.8472,188.6118)" id="g20">
          <path id="path22" style="fill-opacity: 1; fill-rule: nonzero; stroke: none;" fill="currentColor" d="m 0,0 c -4.532,-1.721 -8.47,-4.135 -11.81,-7.25 -3.339,-3.115 -5.994,-6.845 -7.957,-11.194 -1.974,-4.35 -3.246,-9.212 -3.818,-14.577 l -4.345,-40.593 c -0.572,-5.367 -0.341,-10.224 0.7,-14.575 1.035,-4.349 2.89,-8.083 5.563,-11.194 2.674,-3.115 6.096,-5.53 10.262,-7.244 4.161,-1.722 9.146,-2.585 14.942,-2.585 H 59.99 l 2.244,20.943 H 5.941 c -5.152,0 -8.69,1.1 -10.601,3.302 -1.915,2.199 -2.591,5.88 -2.042,11.034 l 1.157,10.791 h 62.253 l 2.12,19.815 H -3.426 l 1.155,10.787 c 0.554,5.154 2.012,8.807 4.391,10.955 2.379,2.147 6.144,3.221 11.297,3.221 H 69.709 L 71.953,2.575 H 15.499 C 9.7,2.575 4.532,1.716 0,0"></path>
        </g>
        <g transform="translate(235.7183,99.9365)" id="g24">
          <path id="path26" style="fill-opacity: 1; fill-rule: nonzero; stroke: none;" fill="currentColor" d="m 0,0 c -3.339,-2.092 -6.996,-3.141 -10.967,-3.141 -2.898,0 -5.573,0.61 -8.018,1.84 -2.445,1.226 -4.516,2.93 -6.215,5.118 -1.701,2.187 -2.958,4.724 -3.78,7.601 -0.819,2.88 -1.059,5.92 -0.714,9.119 0.355,3.307 1.252,6.422 2.692,9.36 1.443,2.933 3.246,5.49 5.411,7.682 2.169,2.179 4.607,3.918 7.325,5.199 2.712,1.277 5.52,1.92 8.418,1.92 3.866,0 7.22,-1.02 10.063,-3.049 2.842,-2.025 4.872,-4.392 6.087,-7.103 h 22.709 c -1.458,9.449 -5.426,16.81 -11.895,22.068 -6.465,5.262 -14.751,7.892 -24.845,7.892 -6.229,0 -12.088,-1.154 -17.574,-3.462 -5.494,-2.308 -10.295,-5.423 -14.419,-9.342 -4.125,-3.919 -7.524,-8.535 -10.209,-13.854 -2.684,-5.313 -4.349,-10.979 -4.988,-16.99 -0.647,-6.014 -0.191,-11.649 1.365,-16.913 1.548,-5.262 3.967,-9.855 7.25,-13.774 3.283,-3.918 7.423,-7.004 12.43,-9.256 4.996,-2.26 10.612,-3.383 16.838,-3.383 10.093,0 18.967,2.628 26.621,7.888 7.647,5.264 13.211,12.619 16.697,22.071 H 7.568 C 5.859,4.589 3.339,2.094 0,0"></path>
        </g>
        <g transform="translate(294.4307,129.9761)" id="g28">
          <path id="path30" style="fill-opacity: 1; fill-rule: nonzero; stroke: none;" fill="currentColor" d="m 0,0 c 2.019,4.833 5.007,8.672 8.963,11.517 3.953,2.844 8.349,4.265 13.181,4.265 5.153,0 9.431,-1.421 12.83,-4.265 C 38.376,8.672 40.46,4.833 41.234,0 Z m 54.094,20.859 c -3.392,4.452 -7.674,7.837 -12.845,10.145 -5.175,2.309 -10.826,3.463 -16.947,3.463 -5.8,0 -11.398,-1.154 -16.798,-3.463 -5.403,-2.308 -10.245,-5.422 -14.53,-9.341 -4.286,-3.919 -7.838,-8.536 -10.665,-13.855 -2.82,-5.313 -4.555,-10.978 -5.198,-16.989 -0.647,-6.015 -0.116,-11.65 1.575,-16.913 1.689,-5.263 4.259,-9.856 7.706,-13.775 3.448,-3.918 7.625,-7.004 12.538,-9.256 4.91,-2.259 10.269,-3.382 16.068,-3.382 10.415,0 19.367,2.6 26.849,7.808 7.482,5.208 12.912,12.057 16.289,20.536 H 35.427 c -2.184,-3.327 -4.944,-5.769 -8.272,-7.325 -3.34,-1.561 -6.776,-2.339 -10.317,-2.339 -5.052,0 -9.266,1.45 -12.665,4.35 -3.396,2.899 -5.516,6.929 -6.354,12.082 h 62.654 c 1.623,8.16 1.814,15.464 0.569,21.901 -1.242,6.447 -3.557,11.893 -6.948,16.353"></path>
        </g>
        <g transform="translate(426.6504,111.6934)" id="g32">
          <path id="path34" style="fill-opacity: 1; fill-rule: nonzero; stroke: none;" fill="currentColor" d="m 0,0 c -1.431,-2.844 -3.227,-5.343 -5.392,-7.49 -2.16,-2.148 -4.591,-3.815 -7.299,-4.993 -2.703,-1.179 -5.504,-1.772 -8.402,-1.772 -2.902,0 -5.572,0.617 -8.017,1.851 -2.446,1.236 -4.518,2.926 -6.223,5.074 -1.705,2.147 -2.961,4.676 -3.784,7.571 -0.815,2.9 -1.05,5.96 -0.707,9.183 0.344,3.22 1.23,6.253 2.667,9.1 1.431,2.84 3.227,5.316 5.38,7.406 2.158,2.098 4.592,3.758 7.304,4.998 2.707,1.231 5.507,1.851 8.41,1.851 2.897,0 5.575,-0.591 8.024,-1.771 2.453,-1.183 4.532,-2.819 6.241,-4.917 C -0.089,23.999 1.175,21.53 2.001,18.685 2.82,15.841 3.056,12.749 2.701,9.424 2.333,5.987 1.433,2.846 0,0 m 15.657,40.19 c -3.13,3.864 -6.969,6.9 -11.513,9.097 -4.543,2.203 -9.551,3.302 -15.029,3.302 -5.048,0 -9.819,-0.939 -14.314,-2.815 -4.494,-1.88 -8.53,-4.49 -12.109,-7.813 l 0.932,8.697 H -56.834 L -69.657,-69.18 h 21.427 l 4.805,44.941 c 2.782,-3.117 6.148,-5.534 10.097,-7.25 3.952,-1.717 8.342,-2.575 13.174,-2.575 5.477,0 10.72,1.099 15.735,3.301 5.01,2.198 9.505,5.259 13.465,9.177 3.968,3.919 7.277,8.541 9.939,13.855 2.662,5.318 4.323,11.033 4.977,17.155 0.655,6.12 0.218,11.809 -1.312,17.075 -1.533,5.257 -3.863,9.822 -6.993,13.691"></path>
        </g>
        <g transform="translate(481.9082,101.9502)" id="g36">
          <path id="path38" style="fill-opacity: 1; fill-rule: nonzero; stroke: none;" fill="currentColor" d="M 0,0 C -2.383,2.357 -3.257,6.441 -2.637,12.241 L 0.5,41.556 h 14.977 l 2.015,18.845 H 2.521 L 4.775,81.5 H -16.487 L -23.88,12.402 c -0.609,-5.694 -0.352,-10.822 0.767,-15.382 1.121,-4.567 3.073,-8.405 5.855,-11.516 2.782,-3.117 6.406,-5.372 10.874,-6.765 4.469,-1.393 9.798,-1.775 15.99,-1.129 l 2.068,19.329 C 6.267,-3.383 2.374,-2.363 0,0"></path>
        </g>
        <g transform="translate(501.8867,79.3994)" id="g40">
          <path id="path42" style="fill-opacity: 1; fill-rule: nonzero; stroke: none;" fill="currentColor" d="m 0,0 h 21.26 l 8.881,82.952 H 8.878 Z"></path>
        </g>
        <g transform="translate(597.0254,111.1934)" id="g44">
          <path id="path46" style="fill-opacity: 1; fill-rule: nonzero; stroke: none;" fill="currentColor" d="m 0,0 c -1.38,-2.877 -3.123,-5.36 -5.224,-7.439 -2.102,-2.075 -4.445,-3.677 -7.033,-4.797 -2.596,-1.12 -5.285,-1.679 -8.074,-1.679 -2.793,0 -5.392,0.559 -7.797,1.679 -2.404,1.12 -4.404,2.722 -6.01,4.797 -1.603,2.079 -2.785,4.562 -3.551,7.439 -0.766,2.88 -0.961,6.085 -0.583,9.604 0.374,3.52 1.259,6.771 2.655,9.759 1.394,2.984 3.114,5.545 5.172,7.68 2.052,2.132 4.401,3.785 7.051,4.958 2.648,1.173 5.371,1.76 8.161,1.76 2.792,0 5.358,-0.587 7.706,-1.76 2.343,-1.173 4.341,-2.826 5.994,-4.958 C 0.116,24.908 1.32,22.347 2.071,19.363 2.823,16.375 3.015,13.124 2.641,9.604 2.262,6.085 1.384,2.88 0,0 m 14.965,41.046 c -3.384,3.931 -7.475,7.004 -12.276,9.211 -4.805,2.21 -10.096,3.318 -15.885,3.318 -5.784,0 -11.32,-1.108 -16.588,-3.318 -5.277,-2.207 -10.003,-5.28 -14.172,-9.211 -4.166,-3.937 -7.64,-8.569 -10.407,-13.906 -2.771,-5.338 -4.488,-11.124 -5.153,-17.377 -0.669,-6.252 -0.19,-12.024 1.44,-17.299 1.634,-5.279 4.121,-9.863 7.453,-13.744 3.335,-3.88 7.407,-6.923 12.209,-9.135 4.797,-2.207 10.092,-3.31 15.881,-3.31 5.788,0 11.315,1.103 16.591,3.31 5.276,2.212 10.022,5.255 14.24,9.135 4.222,3.881 7.711,8.465 10.47,13.744 2.764,5.275 4.484,11.047 5.15,17.299 0.668,6.253 0.186,12.039 -1.437,17.377 -1.626,5.337 -4.131,9.969 -7.516,13.906"></path>
        </g>
        <g transform="translate(699.1816,154.3779)" id="g48">
          <path id="path50" style="fill-opacity: 1; fill-rule: nonzero; stroke: none;" fill="currentColor" d="m 0,0 c -2.457,3.166 -5.598,5.639 -9.435,7.41 -3.836,1.772 -8.17,2.655 -13.005,2.655 -4.505,0 -8.634,-0.913 -12.373,-2.735 -3.741,-1.826 -7.121,-4.3 -10.134,-7.411 l 0.863,8.054 h -20.293 l -8.882,-82.952 h 21.263 l 5.19,48.481 c 0.504,4.727 2.397,8.641 5.688,11.761 3.287,3.112 7.344,4.673 12.179,4.673 3.541,0 6.267,-0.623 8.178,-1.854 1.903,-1.239 3.272,-2.739 4.106,-4.511 0.83,-1.775 1.305,-3.601 1.425,-5.478 0.124,-1.877 0.124,-3.407 -0.004,-4.591 L -20.42,-74.979 H 0.839 l 5.184,48.481 C 6.611,-21.02 6.364,-16.025 5.291,-11.516 4.219,-7.009 2.453,-3.166 0,0"></path>
        </g>
        <g transform="translate(739.9639,101.8711)" id="g52">
          <path id="path54" style="fill-opacity: 1; fill-rule: nonzero; stroke: none;" fill="currentColor" d="M 0,0 C -2.391,2.306 -3.261,6.415 -2.633,12.32 L 6.469,97.364 H -14.797 L -23.895,12.32 c -0.606,-5.693 -0.355,-10.822 0.75,-15.382 1.113,-4.565 3.053,-8.375 5.815,-11.434 2.765,-3.062 6.37,-5.293 10.819,-6.686 4.45,-1.393 9.768,-1.775 15.959,-1.129 l 2.069,19.33 C 6.218,-3.304 2.378,-2.314 0,0"></path>
        </g>
        <g transform="translate(778.0869,129.9761)" id="g56">
          <path id="path58" style="fill-opacity: 1; fill-rule: nonzero; stroke: none;" fill="currentColor" d="m 0,0 c 2.019,4.833 5.007,8.672 8.963,11.517 3.952,2.844 8.349,4.265 13.181,4.265 5.152,0 9.434,-1.421 12.834,-4.265 C 38.376,8.672 40.464,4.833 41.237,0 Z m 54.098,20.859 c -3.389,4.452 -7.674,7.837 -12.849,10.145 -5.176,2.309 -10.825,3.463 -16.94,3.463 -5.804,0 -11.401,-1.154 -16.805,-3.463 -5.4,-2.308 -10.245,-5.422 -14.527,-9.341 -4.29,-3.919 -7.841,-8.536 -10.665,-13.855 -2.824,-5.313 -4.554,-10.978 -5.197,-16.989 -0.644,-6.015 -0.12,-11.65 1.57,-16.913 1.69,-5.263 4.263,-9.856 7.707,-13.775 3.447,-3.918 7.628,-7.004 12.539,-9.256 4.916,-2.259 10.267,-3.382 16.07,-3.382 10.412,0 19.364,2.6 26.842,7.808 7.486,5.208 12.916,12.057 16.297,20.536 H 35.43 c -2.188,-3.327 -4.943,-5.769 -8.275,-7.325 -3.341,-1.561 -6.777,-2.339 -10.317,-2.339 -5.049,0 -9.266,1.45 -12.665,4.35 -3.393,2.899 -5.517,6.929 -6.354,12.082 h 62.658 c 1.619,8.16 1.813,15.464 0.568,21.901 -1.242,6.447 -3.56,11.893 -6.947,16.353"></path>
        </g>
        <g transform="translate(909.4424,123.9385)" id="g60">
          <path id="path62" style="fill-opacity: 1; fill-rule: nonzero; stroke: none;" fill="currentColor" d="m 0,0 c -2.911,1.874 -6.479,3.379 -10.709,4.509 -4.229,1.129 -8.878,2.116 -13.937,2.98 -5.063,0.858 -8.993,1.771 -11.786,2.735 -2.797,0.966 -4.083,2.523 -3.852,4.671 0.161,1.505 1.391,2.98 3.695,4.431 2.299,1.449 5.926,2.173 10.865,2.173 3.969,0 7.039,-0.672 9.208,-2.014 2.164,-1.345 3.466,-2.979 3.9,-4.91 H 9.453 c -0.226,3.862 -1.195,7.41 -2.886,10.631 -1.698,3.222 -4.012,5.956 -6.932,8.213 -2.932,2.259 -6.367,3.999 -10.314,5.234 -3.953,1.234 -8.29,1.851 -13.009,1.851 -6.016,0 -11.334,-0.777 -15.959,-2.333 -4.623,-1.555 -8.52,-3.571 -11.679,-6.04 -3.16,-2.475 -5.638,-5.314 -7.437,-8.537 -1.796,-3.219 -2.861,-6.443 -3.205,-9.662 -0.498,-4.622 0.197,-8.404 2.086,-11.361 1.881,-2.953 4.443,-5.34 7.685,-7.164 3.246,-1.827 6.831,-3.197 10.759,-4.11 3.929,-0.912 7.74,-1.636 11.445,-2.172 3.594,-0.542 6.484,-1.103 8.68,-1.692 2.19,-0.59 3.895,-1.208 5.115,-1.851 1.222,-0.645 1.996,-1.398 2.333,-2.257 0.337,-0.858 0.445,-1.88 0.322,-3.06 -0.266,-2.47 -1.893,-4.321 -4.86,-5.555 -2.982,-1.235 -6.619,-1.853 -10.912,-1.853 -1.612,0 -3.288,0.161 -5.027,0.483 -1.734,0.32 -3.366,0.888 -4.891,1.691 -1.522,0.807 -2.898,1.795 -4.114,2.981 -1.215,1.177 -2.1,2.679 -2.654,4.509 h -21.584 c 0.161,-4.509 1.147,-8.535 2.973,-12.081 1.821,-3.544 4.315,-6.578 7.482,-9.101 3.167,-2.526 6.937,-4.457 11.305,-5.796 4.363,-1.341 9.177,-2.013 14.437,-2.013 5.261,0 10.198,0.697 14.801,2.092 4.608,1.395 8.656,3.328 12.137,5.796 3.486,2.474 6.324,5.424 8.523,8.86 2.187,3.438 3.503,7.191 3.938,11.276 0.486,4.51 0,8.238 -1.459,11.193 C 5.098,-4.297 2.913,-1.884 0,0"></path>
        </g>
        <g transform="translate(995.4893,116.6855)" id="g64">
          <path id="path66" style="fill-opacity: 1; fill-rule: nonzero; stroke: none;" fill="currentColor" d="m 0,0 c -1.454,2.956 -3.639,5.369 -6.55,7.253 -2.913,1.874 -6.484,3.379 -10.715,4.509 -4.228,1.129 -8.873,2.116 -13.936,2.98 -5.063,0.858 -8.989,1.771 -11.786,2.735 -2.797,0.966 -4.079,2.523 -3.852,4.671 0.164,1.505 1.392,2.98 3.694,4.431 2.308,1.449 5.927,2.172 10.867,2.172 3.972,0 7.042,-0.671 9.208,-2.013 2.164,-1.345 3.466,-2.979 3.903,-4.91 H 2.898 c -0.227,3.862 -1.191,7.41 -2.885,10.631 -1.699,3.222 -4.01,5.956 -6.933,8.213 -2.932,2.259 -6.365,3.999 -10.314,5.234 -3.953,1.234 -8.287,1.851 -13.009,1.851 -6.013,0 -11.334,-0.778 -15.956,-2.333 -4.625,-1.555 -8.519,-3.571 -11.678,-6.04 -3.164,-2.475 -5.644,-5.314 -7.438,-8.537 -1.798,-3.219 -2.861,-6.443 -3.208,-9.662 -0.494,-4.622 0.201,-8.404 2.086,-11.361 1.881,-2.953 4.446,-5.34 7.688,-7.164 3.243,-1.827 6.832,-3.197 10.754,-4.11 3.935,-0.912 7.744,-1.636 11.447,-2.172 3.598,-0.542 6.488,-1.103 8.683,-1.692 2.187,-0.59 3.892,-1.208 5.112,-1.851 1.223,-0.646 2,-1.398 2.34,-2.257 0.334,-0.858 0.441,-1.88 0.314,-3.06 -0.261,-2.47 -1.888,-4.321 -4.86,-5.555 -2.98,-1.235 -6.615,-1.853 -10.912,-1.853 -1.611,0 -3.282,0.161 -5.023,0.483 -1.735,0.32 -3.369,0.887 -4.894,1.691 -1.523,0.807 -2.899,1.795 -4.109,2.981 -1.22,1.177 -2.106,2.679 -2.655,4.509 h -21.585 c 0.161,-4.509 1.153,-8.535 2.973,-12.081 1.822,-3.545 4.32,-6.578 7.483,-9.101 3.163,-2.526 6.933,-4.457 11.301,-5.796 4.366,-1.341 9.18,-2.013 14.442,-2.013 5.256,0 10.193,0.696 14.8,2.092 4.603,1.395 8.653,3.328 12.137,5.796 3.481,2.474 6.324,5.424 8.519,8.86 2.192,3.438 3.503,7.191 3.941,11.276 C 1.942,-6.683 1.455,-2.955 0,0"></path>
        </g>
        <g transform="translate(443.0029,35.123)" id="g68">
          <path id="path70" style="fill:#999999;fill-opacity:1;fill-rule:nonzero;stroke:none" d="m 0,0 c -0.651,0.143 -1.211,0.401 -1.679,0.79 -0.47,0.385 -0.815,0.922 -1.035,1.598 -0.221,0.684 -0.278,1.552 -0.161,2.599 l 1.223,11.415 h 5.425 l 0.405,3.757 h -5.434 l 0.549,5.108 H -4.651 L -6.82,4.987 c -0.161,-1.512 -0.071,-2.853 0.277,-4.01 0.339,-1.16 0.889,-2.119 1.641,-2.879 0.74,-0.757 1.683,-1.294 2.808,-1.599 1.13,-0.312 2.398,-0.389 3.807,-0.231 l 0.389,3.617 C 1.35,-0.179 0.647,-0.14 0,0"></path>
        </g>
        <g transform="translate(470.5137,39.8359)" id="g72">
          <path id="path74" style="fill:#999999;fill-opacity:1;fill-rule:nonzero;stroke:none" d="m 0,0 c -0.538,-1.086 -1.219,-2.02 -2.045,-2.811 -0.827,-0.786 -1.75,-1.411 -2.775,-1.877 -1.021,-0.465 -2.09,-0.698 -3.208,-0.698 -1.111,0 -2.131,0.233 -3.052,0.698 -0.927,0.466 -1.712,1.091 -2.355,1.877 -0.643,0.791 -1.115,1.725 -1.414,2.811 -0.306,1.082 -0.388,2.224 -0.266,3.429 0.139,1.24 0.468,2.41 1.003,3.504 0.542,1.099 1.212,2.051 2.023,2.854 0.815,0.803 1.735,1.446 2.763,1.928 1.025,0.481 2.094,0.719 3.205,0.719 1.118,0 2.139,-0.238 3.055,-0.719 0.923,-0.482 1.712,-1.125 2.371,-1.928 C -0.041,8.984 0.437,8.032 0.741,6.933 1.043,5.839 1.126,4.669 0.991,3.429 0.864,2.224 0.531,1.082 0,0 m 2.431,12.339 c -0.943,1.145 -2.113,2.052 -3.511,2.716 -1.406,0.663 -2.951,0.996 -4.652,0.996 -1.698,0 -3.313,-0.333 -4.839,-0.996 -1.526,-0.664 -2.894,-1.571 -4.098,-2.716 -1.205,-1.14 -2.199,-2.48 -2.977,-4.01 -0.789,-1.536 -1.271,-3.167 -1.455,-4.9 -0.183,-1.73 -0.052,-3.344 0.412,-4.849 0.456,-1.498 1.166,-2.811 2.128,-3.94 0.96,-1.129 2.135,-2.021 3.519,-2.673 1.386,-0.651 2.927,-0.972 4.628,-0.972 1.702,0 3.321,0.321 4.862,0.972 1.54,0.652 2.906,1.544 4.09,2.673 1.186,1.129 2.173,2.442 2.951,3.94 0.782,1.505 1.26,3.119 1.444,4.849 0.187,1.733 0.052,3.364 -0.4,4.9 -0.457,1.53 -1.156,2.87 -2.102,4.01"></path>
        </g>
        <g transform="translate(518.8154,39.8359)" id="g76">
          <path id="path78" style="fill:#999999;fill-opacity:1;fill-rule:nonzero;stroke:none" d="m 0,0 c -0.534,-1.086 -1.199,-2.029 -1.996,-2.833 -0.8,-0.802 -1.709,-1.441 -2.733,-1.901 -1.025,-0.466 -2.095,-0.699 -3.205,-0.699 -1.118,0 -2.135,0.233 -3.062,0.699 -0.924,0.46 -1.713,1.099 -2.367,1.901 -0.658,0.804 -1.145,1.747 -1.463,2.833 -0.314,1.082 -0.411,2.224 -0.284,3.429 0.131,1.24 0.479,2.4 1.024,3.482 0.551,1.083 1.238,2.035 2.072,2.854 0.826,0.82 1.753,1.464 2.779,1.924 1.024,0.465 2.09,0.697 3.209,0.697 1.11,0 2.13,-0.232 3.054,-0.697 0.927,-0.46 1.699,-1.104 2.326,-1.924 C -0.024,8.946 0.436,7.994 0.741,6.911 1.045,5.829 1.123,4.669 0.992,3.429 0.864,2.224 0.535,1.082 0,0 m 2.506,12.362 c -0.934,1.127 -2.098,2.029 -3.492,2.693 -1.402,0.663 -2.951,0.996 -4.652,0.996 -1.731,0 -3.346,-0.41 -4.843,-1.23 -1.492,-0.819 -2.737,-1.818 -3.727,-2.989 l 1.521,14.242 h -3.945 l -3.692,-34.519 h 3.803 l 0.413,3.851 c 0.707,-1.24 1.735,-2.292 3.1,-3.154 1.361,-0.868 2.92,-1.302 4.686,-1.302 1.697,0 3.319,0.326 4.861,0.977 1.536,0.646 2.894,1.542 4.067,2.687 1.174,1.146 2.148,2.479 2.911,3.99 0.765,1.516 1.24,3.142 1.423,4.875 0.187,1.734 0.061,3.366 -0.377,4.895 -0.441,1.531 -1.13,2.859 -2.057,3.988"></path>
        </g>
        <g transform="translate(534.3262,45.8184)" id="g80">
          <path id="path82" style="fill:#999999;fill-opacity:1;fill-rule:nonzero;stroke:none" d="M 0,0 C 0.36,1.023 0.851,1.936 1.479,2.739 2.106,3.542 2.794,4.222 3.55,4.78 4.309,5.338 5.109,5.76 5.962,6.052 6.811,6.35 7.656,6.497 8.493,6.497 9.357,6.497 10.183,6.34 10.969,6.032 11.754,5.724 12.457,5.28 13.078,4.709 13.694,4.137 14.222,3.449 14.642,2.643 15.067,1.844 15.349,0.959 15.498,0 Z M 19.095,2.181 C 18.612,3.852 17.864,5.274 16.861,6.451 15.856,7.627 14.659,8.521 13.272,9.14 11.889,9.76 10.423,10.068 8.871,10.068 7.203,10.068 5.599,9.735 4.077,9.072 2.551,8.408 1.189,7.507 -0.014,6.38 -1.218,5.251 -2.217,3.923 -3.016,2.392 -3.813,0.862 -4.3,-0.77 -4.485,-2.503 c -0.192,-1.764 -0.05,-3.403 0.418,-4.921 0.475,-1.516 1.201,-2.833 2.175,-3.944 0.981,-1.111 2.177,-1.995 3.595,-2.648 1.417,-0.65 2.987,-0.971 4.723,-0.971 2.782,0 5.223,0.689 7.318,2.067 2.098,1.375 3.697,3.343 4.808,5.914 h -4.177 c -0.796,-1.394 -1.831,-2.473 -3.111,-3.251 -1.267,-0.772 -2.755,-1.158 -4.457,-1.158 -0.991,0 -1.93,0.183 -2.82,0.537 -0.889,0.352 -1.674,0.872 -2.359,1.553 -0.688,0.679 -1.234,1.508 -1.642,2.48 -0.404,0.976 -0.601,2.082 -0.594,3.32 h 20.091 c 0.229,2.133 0.097,4.036 -0.388,5.706"></path>
        </g>
        <g transform="translate(597.8672,37.3301)" id="g84">
          <path id="path86" style="fill:#999999;fill-opacity:1;fill-rule:nonzero;stroke:none" d="M 0,0 -3.188,17.952 H -7.266 L -14.293,0 -17.476,17.952 h -4.129 l 4.586,-23.891 h 4.088 l 7.06,18.279 3.149,-18.279 h 4.127 l 9.7,23.891 H 6.978 Z"></path>
        </g>
        <g transform="translate(613.0078,31.3906)" id="g88">
          <path id="path90" style="fill:#999999;fill-opacity:1;fill-rule:nonzero;stroke:none" d="M 0,0 H 3.941 L 6.499,23.892 H 2.555 Z"></path>
        </g>
        <g transform="translate(615.9473,58.9023)" id="g92">
          <path id="path94" style="fill:#999999;fill-opacity:1;fill-rule:nonzero;stroke:none" d="M 0,0 H 3.945 L 4.449,4.687 H 0.504 Z"></path>
        </g>
        <g transform="translate(633.75,35.123)" id="g96">
          <path id="path98" style="fill:#999999;fill-opacity:1;fill-rule:nonzero;stroke:none" d="M 0,0 C -0.647,0.143 -1.207,0.401 -1.676,0.79 -2.143,1.175 -2.491,1.712 -2.71,2.388 -2.929,3.072 -2.987,3.94 -2.876,4.987 l 1.224,11.415 h 5.421 l 0.405,3.757 h -5.428 l 0.547,5.108 H -4.652 L -6.817,4.987 c -0.161,-1.512 -0.075,-2.853 0.273,-4.01 0.348,-1.16 0.891,-2.119 1.642,-2.879 0.748,-0.757 1.682,-1.294 2.808,-1.599 1.129,-0.312 2.4,-0.389 3.807,-0.231 l 0.385,3.617 C 1.35,-0.179 0.655,-0.14 0,0"></path>
        </g>
        <g transform="translate(662.5312,53.0566)" id="g100">
          <path id="path102" style="fill:#999999;fill-opacity:1;fill-rule:nonzero;stroke:none" d="m 0,0 c -0.687,0.895 -1.581,1.593 -2.669,2.091 -1.096,0.494 -2.367,0.739 -3.822,0.739 -1.425,0 -2.741,-0.268 -3.96,-0.81 -1.219,-0.541 -2.285,-1.276 -3.182,-2.205 l 1.395,13.039 h -3.946 l -3.689,-34.52 h 3.94 l 1.563,14.612 c 0.097,0.899 0.345,1.726 0.733,2.482 0.389,0.76 0.89,1.421 1.511,1.974 0.613,0.56 1.323,0.999 2.131,1.324 0.808,0.326 1.664,0.487 2.561,0.487 1.945,0 3.343,-0.597 4.189,-1.788 0.852,-1.189 1.178,-2.715 0.979,-4.571 l -1.555,-14.52 H 0.071 L 1.612,-7.284 C 1.77,-5.796 1.718,-4.439 1.448,-3.202 1.175,-1.964 0.699,-0.898 0,0"></path>
        </g>
        <g transform="translate(690.6777,39.8359)" id="g104">
          <path id="path106" style="fill:#999999;fill-opacity:1;fill-rule:nonzero;stroke:none" d="m 0,0 c -0.538,-1.086 -1.211,-2.02 -2.037,-2.811 -0.83,-0.786 -1.758,-1.411 -2.779,-1.877 -1.024,-0.465 -2.093,-0.698 -3.207,-0.698 -1.116,0 -2.136,0.233 -3.057,0.698 -0.927,0.466 -1.712,1.091 -2.356,1.877 -0.638,0.791 -1.11,1.725 -1.413,2.811 -0.302,1.082 -0.389,2.224 -0.261,3.429 0.134,1.24 0.467,2.41 1.006,3.504 0.535,1.099 1.208,2.051 2.015,2.854 0.816,0.803 1.735,1.446 2.763,1.928 1.025,0.481 2.095,0.719 3.209,0.719 1.115,0 2.132,-0.238 3.054,-0.719 0.921,-0.482 1.714,-1.125 2.372,-1.928 C -0.037,8.984 0.441,8.032 0.74,6.933 1.043,5.839 1.126,4.669 0.991,3.429 0.864,2.224 0.534,1.082 0,0 m 2.435,12.339 c -0.947,1.145 -2.117,2.052 -3.519,2.716 -1.398,0.663 -2.947,0.996 -4.645,0.996 -1.705,0 -3.316,-0.333 -4.837,-0.996 -1.531,-0.664 -2.892,-1.571 -4.099,-2.716 -1.205,-1.14 -2.199,-2.48 -2.981,-4.01 -0.781,-1.536 -1.268,-3.167 -1.455,-4.9 -0.183,-1.73 -0.044,-3.344 0.412,-4.849 0.46,-1.498 1.17,-2.811 2.131,-3.94 0.965,-1.129 2.132,-2.021 3.519,-2.673 1.384,-0.651 2.925,-0.972 4.63,-0.972 1.697,0 3.32,0.321 4.856,0.972 1.541,0.652 2.907,1.544 4.096,2.673 1.181,1.129 2.169,2.442 2.95,3.94 0.778,1.505 1.257,3.119 1.44,4.849 0.187,1.733 0.056,3.364 -0.397,4.9 -0.46,1.53 -1.162,2.87 -2.101,4.01"></path>
        </g>
        <g transform="translate(718.8545,40.623)" id="g108">
          <path id="path110" style="fill:#999999;fill-opacity:1;fill-rule:nonzero;stroke:none" d="m 0,0 c -0.097,-0.896 -0.345,-1.727 -0.752,-2.481 -0.404,-0.762 -0.915,-1.417 -1.532,-1.974 -0.617,-0.554 -1.32,-0.99 -2.11,-1.298 -0.793,-0.309 -1.622,-0.467 -2.491,-0.467 -1.915,0 -3.316,0.572 -4.199,1.721 -0.883,1.143 -1.222,2.672 -1.017,4.593 l 1.559,14.565 h -3.896 L -15.974,0.278 c -0.162,-1.488 -0.101,-2.836 0.167,-4.057 0.27,-1.227 0.756,-2.283 1.449,-3.185 0.687,-0.894 1.581,-1.589 2.672,-2.084 1.092,-0.494 2.367,-0.744 3.822,-0.744 1.48,0 2.838,0.281 4.076,0.834 1.233,0.563 2.308,1.331 3.22,2.324 L -0.846,-9.232 H 2.958 L 5.516,14.659 H 1.57 Z"></path>
        </g>
        <g transform="translate(738.5684,35.123)" id="g112">
          <path id="path114" style="fill:#999999;fill-opacity:1;fill-rule:nonzero;stroke:none" d="m 0,0 c -0.646,0.143 -1.207,0.401 -1.679,0.79 -0.467,0.385 -0.811,0.922 -1.036,1.598 -0.22,0.684 -0.272,1.552 -0.16,2.599 l 1.219,11.415 h 5.425 l 0.404,3.757 h -5.426 l 0.546,5.108 H -4.648 L -6.816,4.987 c -0.164,-1.512 -0.075,-2.853 0.268,-4.01 0.352,-1.16 0.898,-2.119 1.642,-2.879 0.752,-0.757 1.686,-1.294 2.812,-1.599 1.129,-0.312 2.397,-0.389 3.803,-0.231 l 0.389,3.617 C 1.346,-0.179 0.651,-0.14 0,0"></path>
        </g>
        <g transform="translate(767.9404,45.8184)" id="g116">
          <path id="path118" style="fill:#999999;fill-opacity:1;fill-rule:nonzero;stroke:none" d="M 0,0 C 0.359,1.023 0.854,1.936 1.481,2.739 2.106,3.542 2.798,4.222 3.557,4.78 4.309,5.338 5.112,5.76 5.97,6.052 6.817,6.35 7.659,6.497 8.497,6.497 9.36,6.497 10.187,6.34 10.976,6.032 11.761,5.724 12.463,5.28 13.081,4.709 13.702,4.137 14.229,3.449 14.652,2.643 15.074,1.844 15.362,0.959 15.501,0 Z M 19.102,2.181 C 18.615,3.852 17.864,5.274 16.861,6.451 15.86,7.627 14.667,8.521 13.279,9.14 11.889,9.76 10.426,10.068 8.878,10.068 7.206,10.068 5.61,9.735 4.084,9.072 2.559,8.408 1.194,7.507 -0.006,6.38 -1.214,5.251 -2.216,3.923 -3.01,2.392 -3.807,0.862 -4.299,-0.77 -4.485,-2.503 c -0.188,-1.764 -0.047,-3.403 0.427,-4.921 0.466,-1.516 1.191,-2.833 2.175,-3.944 0.979,-1.111 2.175,-1.995 3.592,-2.648 1.414,-0.65 2.988,-0.971 4.72,-0.971 2.782,0 5.223,0.689 7.321,2.067 2.096,1.375 3.699,3.343 4.806,5.914 h -4.174 c -0.8,-1.394 -1.835,-2.473 -3.111,-3.251 -1.271,-0.772 -2.759,-1.158 -4.456,-1.158 -0.992,0 -1.938,0.183 -2.821,0.537 -0.893,0.352 -1.678,0.872 -2.363,1.553 -0.687,0.679 -1.234,1.508 -1.637,2.48 -0.404,0.976 -0.606,2.082 -0.595,3.32 H 19.49 c 0.225,2.133 0.097,4.036 -0.388,5.706"></path>
        </g>
        <g transform="translate(814.6611,55.2822)" id="g120">
          <path id="path122" style="fill:#999999;fill-opacity:1;fill-rule:nonzero;stroke:none" d="M 0,0 H -4.823 L -11.305,-8.535 -15.963,0 h -4.824 l 6.746,-11.549 -9.857,-12.343 h 4.828 l 7.12,9.327 5.125,-9.327 h 4.828 l -7.262,12.343 z"></path>
        </g>
        <g transform="translate(825.1201,49.623)" id="g124">
          <path id="path126" style="fill:#999999;fill-opacity:1;fill-rule:nonzero;stroke:none" d="m 0,0 c 0.814,0.803 1.735,1.446 2.759,1.928 1.028,0.481 2.098,0.718 3.213,0.718 1.574,0 2.909,-0.402 3.994,-1.204 1.096,-0.808 1.906,-1.856 2.449,-3.158 h 4.223 C 16.363,-0.513 15.927,0.584 15.32,1.556 14.711,2.531 13.964,3.363 13.08,4.062 12.194,4.755 11.185,5.297 10.052,5.686 8.923,6.069 7.685,6.264 6.356,6.264 4.719,6.264 3.133,5.931 1.607,5.268 0.083,4.604 -1.278,3.702 -2.482,2.575 -3.688,1.446 -4.689,0.118 -5.485,-1.413 c -0.797,-1.529 -1.287,-3.161 -1.473,-4.895 -0.188,-1.733 -0.045,-3.359 0.43,-4.875 0.47,-1.511 1.184,-2.836 2.146,-3.964 0.968,-1.129 2.135,-2.021 3.522,-2.673 1.383,-0.651 2.898,-0.972 4.54,-0.972 2.688,0 5.089,0.728 7.21,2.182 2.124,1.455 3.708,3.385 4.774,5.799 h -4.222 c -0.792,-1.301 -1.82,-2.349 -3.099,-3.158 -1.273,-0.802 -2.703,-1.204 -4.279,-1.204 -1.114,0 -2.135,0.233 -3.058,0.697 -0.923,0.467 -1.709,1.094 -2.349,1.903 -0.642,0.803 -1.114,1.742 -1.416,2.808 -0.304,1.065 -0.389,2.218 -0.255,3.457 0.131,1.24 0.459,2.394 0.995,3.48 C -1.484,-1.747 -0.812,-0.803 0,0"></path>
        </g>
        <g transform="translate(851.5088,45.8184)" id="g128">
          <path id="path130" style="fill:#999999;fill-opacity:1;fill-rule:nonzero;stroke:none" d="M 0,0 C 0.355,1.023 0.854,1.936 1.474,2.739 2.105,3.542 2.794,4.222 3.549,4.78 4.308,5.338 5.112,5.76 5.961,6.052 6.813,6.35 7.654,6.497 8.492,6.497 9.36,6.497 10.183,6.34 10.971,6.032 11.753,5.724 12.459,5.28 13.081,4.709 13.698,4.137 14.222,3.449 14.64,2.643 15.065,1.844 15.354,0.959 15.496,0 Z M 19.093,2.181 C 18.611,3.852 17.864,5.274 16.861,6.451 15.858,7.627 14.662,8.521 13.274,9.14 11.888,9.76 10.422,10.068 8.873,10.068 7.206,10.068 5.605,9.735 4.08,9.072 2.554,8.408 1.194,7.507 -0.015,6.38 -1.215,5.251 -2.218,3.923 -3.019,2.392 -3.811,0.862 -4.301,-0.77 -4.487,-2.503 c -0.19,-1.764 -0.049,-3.403 0.423,-4.921 0.471,-1.516 1.196,-2.833 2.172,-3.944 0.984,-1.111 2.18,-1.995 3.593,-2.648 1.418,-0.65 2.992,-0.971 4.723,-0.971 2.786,0 5.228,0.689 7.317,2.067 2.098,1.375 3.699,3.343 4.814,5.914 h -4.181 c -0.792,-1.394 -1.828,-2.473 -3.107,-3.251 -1.272,-0.772 -2.755,-1.158 -4.46,-1.158 -0.993,0 -1.931,0.183 -2.822,0.537 -0.888,0.352 -1.674,0.872 -2.358,1.553 -0.689,0.679 -1.23,1.508 -1.637,2.48 -0.409,0.976 -0.606,2.082 -0.595,3.32 h 20.086 c 0.23,2.133 0.102,4.036 -0.388,5.706"></path>
        </g>
        <g transform="translate(897.7686,39.9258)" id="g132">
          <path id="path134" style="fill:#999999;fill-opacity:1;fill-rule:nonzero;stroke:none" d="m 0,0 c -0.535,-1.082 -1.204,-2.034 -2,-2.854 -0.797,-0.82 -1.709,-1.458 -2.733,-1.924 -1.03,-0.465 -2.095,-0.698 -3.205,-0.698 -1.116,0 -2.136,0.233 -3.059,0.698 -0.923,0.466 -1.713,1.104 -2.371,1.924 -0.658,0.82 -1.14,1.772 -1.459,2.854 -0.318,1.082 -0.407,2.244 -0.276,3.483 0.126,1.204 0.467,2.35 1.017,3.433 0.55,1.083 1.234,2.024 2.065,2.828 0.833,0.803 1.76,1.442 2.782,1.905 1.021,0.461 2.093,0.695 3.208,0.695 1.11,0 2.125,-0.234 3.055,-0.695 0.928,-0.463 1.702,-1.102 2.322,-1.905 C -0.025,8.94 0.438,7.999 0.741,6.916 1.039,5.833 1.126,4.687 0.999,3.483 0.868,2.244 0.531,1.082 0,0 m 2.498,12.296 c -0.931,1.147 -2.093,2.043 -3.496,2.693 -1.396,0.647 -2.95,0.972 -4.645,0.972 -1.768,0 -3.42,-0.434 -4.969,-1.298 -1.547,-0.864 -2.805,-1.901 -3.766,-3.11 l 0.408,3.803 h -3.802 l -3.695,-34.518 h 3.942 l 1.521,14.244 c 0.744,-1.174 1.775,-2.164 3.096,-2.971 1.32,-0.803 2.846,-1.206 4.581,-1.206 1.697,0 3.321,0.322 4.857,0.972 1.541,0.652 2.899,1.553 4.073,2.695 1.174,1.145 2.142,2.481 2.908,4.01 C 4.278,0.118 4.756,1.749 4.943,3.483 5.127,5.182 4.992,6.788 4.555,8.306 4.11,9.819 3.43,11.149 2.498,12.296"></path>
        </g>
        <g transform="translate(916.4658,35.123)" id="g136">
          <path id="path138" style="fill:#999999;fill-opacity:1;fill-rule:nonzero;stroke:none" d="M 0,0 C -0.657,0.143 -1.212,0.401 -1.682,0.79 -2.154,1.175 -2.497,1.712 -2.715,2.388 -2.939,3.072 -2.996,3.94 -2.883,4.987 l 1.219,11.415 h 5.433 l 0.404,3.757 H -1.26 l 0.546,5.108 H -4.655 L -6.824,4.987 c -0.161,-1.512 -0.072,-2.853 0.276,-4.01 0.344,-1.16 0.893,-2.119 1.637,-2.879 0.753,-0.757 1.688,-1.294 2.817,-1.599 1.121,-0.312 2.39,-0.389 3.798,-0.231 l 0.389,3.617 C 1.346,-0.179 0.646,-0.14 0,0"></path>
        </g>
        <g transform="translate(928.3525,58.9023)" id="g140">
          <path id="path142" style="fill:#999999;fill-opacity:1;fill-rule:nonzero;stroke:none" d="M 0,0 H 3.945 L 4.45,4.687 H 0.505 Z"></path>
        </g>
        <g transform="translate(925.4141,31.3906)" id="g144">
          <path id="path146" style="fill:#999999;fill-opacity:1;fill-rule:nonzero;stroke:none" d="M 0,0 H 3.945 L 6.5,23.892 H 2.554 Z"></path>
        </g>
        <g transform="translate(957.5615,39.8359)" id="g148">
          <path id="path150" style="fill:#999999;fill-opacity:1;fill-rule:nonzero;stroke:none" d="m 0,0 c -0.531,-1.086 -1.211,-2.02 -2.038,-2.811 -0.826,-0.786 -1.754,-1.411 -2.774,-1.877 -1.025,-0.465 -2.094,-0.698 -3.209,-0.698 -1.115,0 -2.131,0.233 -3.059,0.698 -0.923,0.466 -1.704,1.091 -2.349,1.877 -0.638,0.791 -1.118,1.725 -1.413,2.811 -0.305,1.082 -0.388,2.224 -0.262,3.429 0.13,1.24 0.467,2.41 1.002,3.504 0.536,1.099 1.208,2.051 2.02,2.854 0.815,0.803 1.73,1.446 2.756,1.928 1.028,0.481 2.097,0.719 3.212,0.719 1.115,0 2.133,-0.238 3.055,-0.719 0.921,-0.482 1.713,-1.125 2.368,-1.928 C -0.034,8.984 0.449,8.032 0.74,6.933 1.047,5.839 1.125,4.669 0.994,3.429 0.868,2.224 0.538,1.082 0,0 m 2.434,12.339 c -0.942,1.145 -2.117,2.052 -3.511,2.716 -1.399,0.663 -2.95,0.996 -4.652,0.996 -1.698,0 -3.317,-0.333 -4.838,-0.996 -1.523,-0.664 -2.891,-1.571 -4.095,-2.716 -1.208,-1.14 -2.198,-2.48 -2.981,-4.01 -0.785,-1.536 -1.267,-3.167 -1.455,-4.9 -0.182,-1.73 -0.048,-3.344 0.412,-4.849 0.46,-1.498 1.166,-2.811 2.128,-3.94 0.965,-1.129 2.14,-2.021 3.518,-2.673 1.389,-0.651 2.929,-0.972 4.63,-0.972 1.701,0 3.329,0.321 4.861,0.972 1.537,0.652 2.905,1.544 4.087,2.673 1.19,1.129 2.177,2.442 2.955,3.94 0.778,1.505 1.264,3.119 1.45,4.849 0.184,1.733 0.049,3.364 -0.411,4.9 -0.452,1.53 -1.151,2.87 -2.098,4.01"></path>
        </g>
        <g transform="translate(990.3936,49.8545)" id="g152">
          <path id="path154" style="fill:#999999;fill-opacity:1;fill-rule:nonzero;stroke:none" d="m 0,0 c -0.27,1.238 -0.748,2.304 -1.444,3.202 -0.691,0.895 -1.584,1.593 -2.674,2.091 -1.091,0.494 -2.366,0.739 -3.817,0.739 -1.455,0 -2.812,-0.285 -4.061,-0.859 -1.253,-0.569 -2.333,-1.352 -3.241,-2.34 l 0.279,2.595 h -3.808 l -2.552,-23.892 h 3.945 l 1.56,14.612 c 0.095,0.899 0.339,1.726 0.728,2.482 0.392,0.761 0.894,1.421 1.515,1.974 0.613,0.56 1.327,1 2.131,1.324 0.807,0.326 1.661,0.487 2.561,0.487 1.914,0 3.302,-0.597 4.17,-1.788 0.86,-1.189 1.196,-2.715 0.994,-4.571 l -1.547,-14.52 h 3.892 L 0.169,-4.082 C 0.324,-2.594 0.273,-1.237 0,0"></path>
        </g>
        <g transform="translate(537.7383,185.6914)" id="g156">
          <path id="path158" style="fill:#558b01;fill-opacity:1;fill-rule:nonzero;stroke:none" d="m 0,0 c -0.846,-7.905 -7.943,-14.319 -15.855,-14.319 -7.906,0 -13.63,6.414 -12.786,14.319 0.85,7.91 7.95,14.32 15.859,14.32 C -4.877,14.32 0.852,7.91 0,0"></path>
        </g>
        <g transform="translate(158.8252,117.458)" id="g160">
          <path id="path162" style="fill:#558b01;fill-opacity:1;fill-rule:nonzero;stroke:none" d="m 0,0 -3.653,-4.607 -10.336,-13.044 11.933,-20.408 h 23.999 z m -30.651,-0.064 -30.038,-37.995 h 24.002 l 16.255,20.515 -7.452,12.746 z"></path>
        </g>
        <g transform="translate(145.9209,139.8467)" id="g164">
          <path id="path166" style="fill:#558b01;fill-opacity:1;fill-rule:nonzero;stroke:none" d="m 0,0 -12.976,22.504 h -24.668 l 23.565,-40.313 10.224,-17.489 14.011,17.681 14.456,18.21 C 138.596,133.6 333.9,66.318 353.487,59.024 102.123,152.612 0,0 0,0"></path>
        </g>
        <g transform="translate(499.4077,198.8711)" id="g168">
          <path id="path170" style="fill:#558b01;fill-opacity:1;fill-rule:nonzero;stroke:none" d="M 0,0 C 0.557,-0.194 1.096,-0.369 1.653,-0.565 1.653,-0.565 1.074,-0.36 0,0"></path>
        </g>
        <g id="g172">
          <g id="g174"></g>
          <g id="g204">
            <g style="opacity:0.72999603" id="g202" clip-path="url(#clipPath178)">
              <g id="g200">
                <g id="g198">
                  <g id="g196">
                    <g id="g194"></g>
                  </g>
                </g>
              </g>
            </g>
          </g>
        </g>
      </g>
    </g>
  </g>
</svg>
