<svg viewBox="0 0 1333.333 333.333" width="220" xmlns="http://www.w3.org/2000/svg"><defs><clipPath id="a" clipPathUnits="userSpaceOnUse"><path d="M0 250h1000V0H0z"/></clipPath><clipPath id="b" clipPathUnits="userSpaceOnUse"><path d="M3.596 229.207h994.792V113.301H3.596z"/></clipPath></defs><g clip-path="url(#a)" transform="matrix(1.33333 0 0 -1.33333 0 333.333)"><path style="fill-opacity:1;fill-rule:nonzero;stroke:none" fill="currentColor" d="M0 0c-4.532-1.721-8.47-4.135-11.81-7.25-3.339-3.115-5.994-6.845-7.957-11.194-1.974-4.35-3.246-9.212-3.818-14.577l-4.345-40.593c-.572-5.367-.341-10.224.7-14.575 1.035-4.349 2.89-8.083 5.563-11.194 2.674-3.115 6.096-5.53 10.262-7.244 4.161-1.722 9.146-2.585 14.942-2.585H59.99l2.244 20.943H5.941c-5.152 0-8.69 1.1-10.601 3.302-1.915 2.199-2.591 5.88-2.042 11.034l1.157 10.791h62.253l2.12 19.815H-3.426l1.155 10.787c.554 5.154 2.012 8.807 4.391 10.955 2.379 2.147 6.144 3.221 11.297 3.221h56.292l2.244 20.939H15.499C9.7 2.575 4.532 1.716 0 0" transform="translate(29.847 188.612)"/><path style="fill-opacity:1;fill-rule:nonzero;stroke:none" fill="currentColor" d="M0 0c-3.339-2.092-6.996-3.141-10.967-3.141-2.898 0-5.573.61-8.018 1.84A17.984 17.984 0 0 0-25.2 3.817c-1.701 2.187-2.958 4.724-3.78 7.601-.819 2.88-1.059 5.92-.714 9.119a27.836 27.836 0 0 0 2.692 9.36c1.443 2.933 3.246 5.49 5.411 7.682 2.169 2.179 4.607 3.918 7.325 5.199 2.712 1.277 5.52 1.92 8.418 1.92 3.866 0 7.22-1.02 10.063-3.049 2.842-2.025 4.872-4.392 6.087-7.103h22.709c-1.458 9.449-5.426 16.81-11.895 22.068-6.465 5.262-14.751 7.892-24.845 7.892-6.229 0-12.088-1.154-17.574-3.462-5.494-2.308-10.295-5.423-14.419-9.342-4.125-3.919-7.524-8.535-10.209-13.854-2.684-5.313-4.349-10.979-4.988-16.99-.647-6.014-.191-11.649 1.365-16.913 1.548-5.262 3.967-9.855 7.25-13.774 3.283-3.918 7.423-7.004 12.43-9.256 4.996-2.26 10.612-3.383 16.838-3.383 10.093 0 18.967 2.628 26.621 7.888C21.232-9.316 26.796-1.961 30.282 7.491H7.568C5.859 4.589 3.339 2.094 0 0" transform="translate(235.718 99.936)"/><path style="fill-opacity:1;fill-rule:nonzero;stroke:none" fill="currentColor" d="M0 0c2.019 4.833 5.007 8.672 8.963 11.517 3.953 2.844 8.349 4.265 13.181 4.265 5.153 0 9.431-1.421 12.83-4.265C38.376 8.672 40.46 4.833 41.234 0zm54.094 20.859c-3.392 4.452-7.674 7.837-12.845 10.145-5.175 2.309-10.826 3.463-16.947 3.463-5.8 0-11.398-1.154-16.798-3.463-5.403-2.308-10.245-5.422-14.53-9.341-4.286-3.919-7.838-8.536-10.665-13.855a46.455 46.455 0 0 1-5.198-16.989c-.647-6.015-.116-11.65 1.575-16.913 1.689-5.263 4.259-9.856 7.706-13.775 3.448-3.918 7.625-7.004 12.538-9.256 4.91-2.259 10.269-3.382 16.068-3.382 10.415 0 19.367 2.6 26.849 7.808 7.482 5.208 12.912 12.057 16.289 20.536H35.427c-2.184-3.327-4.944-5.769-8.272-7.325-3.34-1.561-6.776-2.339-10.317-2.339-5.052 0-9.266 1.45-12.665 4.35-3.396 2.899-5.516 6.929-6.354 12.082h62.654c1.623 8.16 1.814 15.464.569 21.901-1.242 6.447-3.557 11.893-6.948 16.353" transform="translate(294.43 129.976)"/><path style="fill-opacity:1;fill-rule:nonzero;stroke:none" fill="currentColor" d="M0 0c-1.431-2.844-3.227-5.343-5.392-7.49-2.16-2.148-4.591-3.815-7.299-4.993-2.703-1.179-5.504-1.772-8.402-1.772-2.902 0-5.572.617-8.017 1.851a18.509 18.509 0 0 0-6.223 5.074c-1.705 2.147-2.961 4.676-3.784 7.571-.815 2.9-1.05 5.96-.707 9.183a26.195 26.195 0 0 0 2.667 9.1c1.431 2.84 3.227 5.316 5.38 7.406a25.765 25.765 0 0 0 7.304 4.998c2.707 1.231 5.507 1.851 8.41 1.851 2.897 0 5.575-.591 8.024-1.771a18.066 18.066 0 0 0 6.241-4.917c1.709-2.092 2.973-4.561 3.799-7.406.819-2.844 1.055-5.936.7-9.261C2.333 5.987 1.433 2.846 0 0m15.657 40.19c-3.13 3.864-6.969 6.9-11.513 9.097-4.543 2.203-9.551 3.302-15.029 3.302-5.048 0-9.819-.939-14.314-2.815a40.835 40.835 0 0 1-12.109-7.813l.932 8.697h-20.458L-69.657-69.18h21.427l4.805 44.941c2.782-3.117 6.148-5.534 10.097-7.25 3.952-1.717 8.342-2.575 13.174-2.575 5.477 0 10.72 1.099 15.735 3.301 5.01 2.198 9.505 5.259 13.465 9.177 3.968 3.919 7.277 8.541 9.939 13.855 2.662 5.318 4.323 11.033 4.977 17.155.655 6.12.218 11.809-1.312 17.075-1.533 5.257-3.863 9.822-6.993 13.691" transform="translate(426.65 111.693)"/><path style="fill-opacity:1;fill-rule:nonzero;stroke:none" fill="currentColor" d="M0 0c-2.383 2.357-3.257 6.441-2.637 12.241L.5 41.556h14.977l2.015 18.845H2.521L4.775 81.5h-21.262l-7.393-69.098c-.609-5.694-.352-10.822.767-15.382 1.121-4.567 3.073-8.405 5.855-11.516 2.782-3.117 6.406-5.372 10.874-6.765 4.469-1.393 9.798-1.775 15.99-1.129l2.068 19.329C6.267-3.383 2.374-2.363 0 0" transform="translate(481.908 101.95)"/><path style="fill-opacity:1;fill-rule:nonzero;stroke:none" fill="currentColor" d="M0 0h21.26l8.881 82.952H8.878z" transform="translate(501.887 79.4)"/><path style="fill-opacity:1;fill-rule:nonzero;stroke:none" fill="currentColor" d="M0 0c-1.38-2.877-3.123-5.36-5.224-7.439-2.102-2.075-4.445-3.677-7.033-4.797a20.171 20.171 0 0 0-8.074-1.679c-2.793 0-5.392.559-7.797 1.679a16.075 16.075 0 0 0-6.01 4.797C-35.741-5.36-36.923-2.877-37.689 0c-.766 2.88-.961 6.085-.583 9.604.374 3.52 1.259 6.771 2.655 9.759 1.394 2.984 3.114 5.545 5.172 7.68 2.052 2.132 4.401 3.785 7.051 4.958 2.648 1.173 5.371 1.76 8.161 1.76 2.792 0 5.358-.587 7.706-1.76 2.343-1.173 4.341-2.826 5.994-4.958 1.649-2.135 2.853-4.696 3.604-7.68.752-2.988.944-6.239.57-9.759C2.262 6.085 1.384 2.88 0 0m14.965 41.046c-3.384 3.931-7.475 7.004-12.276 9.211-4.805 2.21-10.096 3.318-15.885 3.318-5.784 0-11.32-1.108-16.588-3.318a46.853 46.853 0 0 1-14.172-9.211c-4.166-3.937-7.64-8.569-10.407-13.906-2.771-5.338-4.488-11.124-5.153-17.377-.669-6.252-.19-12.024 1.44-17.299 1.634-5.279 4.121-9.863 7.453-13.744 3.335-3.88 7.407-6.923 12.209-9.135 4.797-2.207 10.092-3.31 15.881-3.31 5.788 0 11.315 1.103 16.591 3.31a48.673 48.673 0 0 1 14.24 9.135c4.222 3.881 7.711 8.465 10.47 13.744 2.764 5.275 4.484 11.047 5.15 17.299.668 6.253.186 12.039-1.437 17.377-1.626 5.337-4.131 9.969-7.516 13.906" transform="translate(597.025 111.193)"/><path style="fill-opacity:1;fill-rule:nonzero;stroke:none" fill="currentColor" d="M0 0c-2.457 3.166-5.598 5.639-9.435 7.41-3.836 1.772-8.17 2.655-13.005 2.655-4.505 0-8.634-.913-12.373-2.735-3.741-1.826-7.121-4.3-10.134-7.411l.863 8.054h-20.293l-8.882-82.952h21.263l5.19 48.481c.504 4.727 2.397 8.641 5.688 11.761 3.287 3.112 7.344 4.673 12.179 4.673 3.541 0 6.267-.623 8.178-1.854 1.903-1.239 3.272-2.739 4.106-4.511.83-1.775 1.305-3.601 1.425-5.478.124-1.877.124-3.407-.004-4.591l-5.186-48.481H.839l5.184 48.481c.588 5.478.341 10.473-.732 14.982C4.219-7.009 2.453-3.166 0 0" transform="translate(699.182 154.378)"/><path style="fill-opacity:1;fill-rule:nonzero;stroke:none" fill="currentColor" d="M0 0c-2.391 2.306-3.261 6.415-2.633 12.32l9.102 85.044h-21.266l-9.098-85.044c-.606-5.693-.355-10.822.75-15.382 1.113-4.565 3.053-8.375 5.815-11.434 2.765-3.062 6.37-5.293 10.819-6.686 4.45-1.393 9.768-1.775 15.959-1.129l2.069 19.33C6.218-3.304 2.378-2.314 0 0" transform="translate(739.964 101.871)"/><path style="fill-opacity:1;fill-rule:nonzero;stroke:none" fill="currentColor" d="M0 0c2.019 4.833 5.007 8.672 8.963 11.517 3.952 2.844 8.349 4.265 13.181 4.265 5.152 0 9.434-1.421 12.834-4.265C38.376 8.672 40.464 4.833 41.237 0zm54.098 20.859c-3.389 4.452-7.674 7.837-12.849 10.145-5.176 2.309-10.825 3.463-16.94 3.463-5.804 0-11.401-1.154-16.805-3.463-5.4-2.308-10.245-5.422-14.527-9.341-4.29-3.919-7.841-8.536-10.665-13.855-2.824-5.313-4.554-10.978-5.197-16.989-.644-6.015-.12-11.65 1.57-16.913s4.263-9.856 7.707-13.775c3.447-3.918 7.628-7.004 12.539-9.256 4.916-2.259 10.267-3.382 16.07-3.382 10.412 0 19.364 2.6 26.842 7.808 7.486 5.208 12.916 12.057 16.297 20.536H35.43c-2.188-3.327-4.943-5.769-8.275-7.325-3.341-1.561-6.777-2.339-10.317-2.339-5.049 0-9.266 1.45-12.665 4.35-3.393 2.899-5.517 6.929-6.354 12.082h62.658c1.619 8.16 1.813 15.464.568 21.901-1.242 6.447-3.56 11.893-6.947 16.353" transform="translate(778.087 129.976)"/><path style="fill-opacity:1;fill-rule:nonzero;stroke:none" fill="currentColor" d="M0 0c-2.911 1.874-6.479 3.379-10.709 4.509-4.229 1.129-8.878 2.116-13.937 2.98-5.063.858-8.993 1.771-11.786 2.735-2.797.966-4.083 2.523-3.852 4.671.161 1.505 1.391 2.98 3.695 4.431 2.299 1.449 5.926 2.173 10.865 2.173 3.969 0 7.039-.672 9.208-2.014 2.164-1.345 3.466-2.979 3.9-4.91H9.453c-.226 3.862-1.195 7.41-2.886 10.631-1.698 3.222-4.012 5.956-6.932 8.213-2.932 2.259-6.367 3.999-10.314 5.234-3.953 1.234-8.29 1.851-13.009 1.851-6.016 0-11.334-.777-15.959-2.333-4.623-1.555-8.52-3.571-11.679-6.04-3.16-2.475-5.638-5.314-7.437-8.537-1.796-3.219-2.861-6.443-3.205-9.662-.498-4.622.197-8.404 2.086-11.361 1.881-2.953 4.443-5.34 7.685-7.164 3.246-1.827 6.831-3.197 10.759-4.11 3.929-.912 7.74-1.636 11.445-2.172 3.594-.542 6.484-1.103 8.68-1.692 2.19-.59 3.895-1.208 5.115-1.851 1.222-.645 1.996-1.398 2.333-2.257.337-.858.445-1.88.322-3.06-.266-2.47-1.893-4.321-4.86-5.555-2.982-1.235-6.619-1.853-10.912-1.853a27.61 27.61 0 0 0-5.027.483c-1.734.32-3.366.888-4.891 1.691a17.778 17.778 0 0 0-4.114 2.981c-1.215 1.177-2.1 2.679-2.654 4.509h-21.584c.161-4.509 1.147-8.535 2.973-12.081 1.821-3.544 4.315-6.578 7.482-9.101 3.167-2.526 6.937-4.457 11.305-5.796 4.363-1.341 9.177-2.013 14.437-2.013 5.261 0 10.198.697 14.801 2.092 4.608 1.395 8.656 3.328 12.137 5.796 3.486 2.474 6.324 5.424 8.523 8.86a25.815 25.815 0 0 1 3.938 11.276c.486 4.51 0 8.238-1.459 11.193C5.098-4.297 2.913-1.884 0 0" transform="translate(909.442 123.939)"/><path style="fill-opacity:1;fill-rule:nonzero;stroke:none" fill="currentColor" d="M0 0c-1.454 2.956-3.639 5.369-6.55 7.253-2.913 1.874-6.484 3.379-10.715 4.509-4.228 1.129-8.873 2.116-13.936 2.98-5.063.858-8.989 1.771-11.786 2.735-2.797.966-4.079 2.523-3.852 4.671.164 1.505 1.392 2.98 3.694 4.431 2.308 1.449 5.927 2.172 10.867 2.172 3.972 0 7.042-.671 9.208-2.013 2.164-1.345 3.466-2.979 3.903-4.91H2.898c-.227 3.862-1.191 7.41-2.885 10.631-1.699 3.222-4.01 5.956-6.933 8.213-2.932 2.259-6.365 3.999-10.314 5.234-3.953 1.234-8.287 1.851-13.009 1.851-6.013 0-11.334-.778-15.956-2.333-4.625-1.555-8.519-3.571-11.678-6.04-3.164-2.475-5.644-5.314-7.438-8.537-1.798-3.219-2.861-6.443-3.208-9.662-.494-4.622.201-8.404 2.086-11.361 1.881-2.953 4.446-5.34 7.688-7.164 3.243-1.827 6.832-3.197 10.754-4.11a138.747 138.747 0 0 1 11.447-2.172c3.598-.542 6.488-1.103 8.683-1.692 2.187-.59 3.892-1.208 5.112-1.851 1.223-.646 2-1.398 2.34-2.257.334-.858.441-1.88.314-3.06-.261-2.47-1.888-4.321-4.86-5.555-2.98-1.235-6.615-1.853-10.912-1.853-1.611 0-3.282.161-5.023.483-1.735.32-3.369.887-4.894 1.691a17.602 17.602 0 0 0-4.109 2.981c-1.22 1.177-2.106 2.679-2.655 4.509h-21.585c.161-4.509 1.153-8.535 2.973-12.081 1.822-3.545 4.32-6.578 7.483-9.101 3.163-2.526 6.933-4.457 11.301-5.796 4.366-1.341 9.18-2.013 14.442-2.013 5.256 0 10.193.696 14.8 2.092 4.603 1.395 8.653 3.328 12.137 5.796 3.481 2.474 6.324 5.424 8.519 8.86 2.192 3.438 3.503 7.191 3.941 11.276C1.942-6.683 1.455-2.955 0 0" transform="translate(995.49 116.686)"/><path style="fill:#999;fill-opacity:1;fill-rule:nonzero;stroke:none" d="M0 0c-.651.143-1.211.401-1.679.79-.47.385-.815.922-1.035 1.598-.221.684-.278 1.552-.161 2.599l1.223 11.415h5.425l.405 3.757h-5.434l.549 5.108h-3.944L-6.82 4.987c-.161-1.512-.071-2.853.277-4.01.339-1.16.889-2.119 1.641-2.879.74-.757 1.683-1.294 2.808-1.599 1.13-.312 2.398-.389 3.807-.231l.389 3.617A7.085 7.085 0 0 0 0 0" transform="translate(443.003 35.123)"/><path style="fill:#999;fill-opacity:1;fill-rule:nonzero;stroke:none" d="M0 0a9.984 9.984 0 0 0-2.045-2.811A10.02 10.02 0 0 0-4.82-4.688a7.653 7.653 0 0 0-3.208-.698c-1.111 0-2.131.233-3.052.698a7.155 7.155 0 0 0-2.355 1.877c-.643.791-1.115 1.725-1.414 2.811-.306 1.082-.388 2.224-.266 3.429a10.6 10.6 0 0 0 1.003 3.504c.542 1.099 1.212 2.051 2.023 2.854a9.897 9.897 0 0 0 2.763 1.928 7.458 7.458 0 0 0 3.205.719c1.118 0 2.139-.238 3.055-.719A7.568 7.568 0 0 0-.695 9.787C-.041 8.984.437 8.032.741 6.933c.302-1.094.385-2.264.25-3.504A10.136 10.136 0 0 0 0 0m2.431 12.339a10.091 10.091 0 0 1-3.511 2.716c-1.406.663-2.951.996-4.652.996-1.698 0-3.313-.333-4.839-.996a14.028 14.028 0 0 1-4.098-2.716 14.558 14.558 0 0 1-2.977-4.01 13.812 13.812 0 0 1-1.455-4.9c-.183-1.73-.052-3.344.412-4.849.456-1.498 1.166-2.811 2.128-3.94a10.349 10.349 0 0 1 3.519-2.673c1.386-.651 2.927-.972 4.628-.972 1.702 0 3.321.321 4.862.972A13.507 13.507 0 0 1 .538-5.36a14.848 14.848 0 0 1 2.951 3.94 13.507 13.507 0 0 1 1.444 4.849c.187 1.733.052 3.364-.4 4.9-.457 1.53-1.156 2.87-2.102 4.01" transform="translate(470.514 39.836)"/><path style="fill:#999;fill-opacity:1;fill-rule:nonzero;stroke:none" d="M0 0a10.675 10.675 0 0 0-1.996-2.833 9.117 9.117 0 0 0-2.733-1.901 7.665 7.665 0 0 0-3.205-.699c-1.118 0-2.135.233-3.062.699a7.132 7.132 0 0 0-2.367 1.901c-.658.804-1.145 1.747-1.463 2.833a8.858 8.858 0 0 0-.284 3.429c.131 1.24.479 2.4 1.024 3.482a10.865 10.865 0 0 0 2.072 2.854 9.368 9.368 0 0 0 2.779 1.924 7.663 7.663 0 0 0 3.209.697c1.11 0 2.13-.232 3.054-.697A6.57 6.57 0 0 0-.646 9.765C-.024 8.946.436 7.994.741 6.911c.304-1.082.382-2.242.251-3.482A10.07 10.07 0 0 0 0 0m2.506 12.362c-.934 1.127-2.098 2.029-3.492 2.693-1.402.663-2.951.996-4.652.996a9.924 9.924 0 0 1-4.843-1.23c-1.492-.819-2.737-1.818-3.727-2.989l1.521 14.242h-3.945l-3.692-34.519h3.803l.413 3.851c.707-1.24 1.735-2.292 3.1-3.154 1.361-.868 2.92-1.302 4.686-1.302 1.697 0 3.319.326 4.861.977A12.964 12.964 0 0 1 .606-5.386a14.963 14.963 0 0 1 2.911 3.99A13.993 13.993 0 0 1 4.94 3.479c.187 1.734.061 3.366-.377 4.895-.441 1.531-1.13 2.859-2.057 3.988" transform="translate(518.815 39.836)"/><path style="fill:#999;fill-opacity:1;fill-rule:nonzero;stroke:none" d="M0 0a9.551 9.551 0 0 0 1.479 2.739A10.678 10.678 0 0 0 3.55 4.78a8.93 8.93 0 0 0 2.412 1.272 7.606 7.606 0 0 0 2.531.445 6.73 6.73 0 0 0 4.585-1.788 7.576 7.576 0 0 0 1.564-2.066A8.305 8.305 0 0 0 15.498 0zm19.095 2.181c-.483 1.671-1.231 3.093-2.234 4.27a10.06 10.06 0 0 1-3.589 2.689c-1.383.62-2.849.928-4.401.928a11.9 11.9 0 0 1-4.794-.996A14.272 14.272 0 0 1-.014 6.38a14.795 14.795 0 0 1-3.002-3.988 13.629 13.629 0 0 1-1.469-4.895c-.192-1.764-.05-3.403.418-4.921.475-1.516 1.201-2.833 2.175-3.944.981-1.111 2.177-1.995 3.595-2.648 1.417-.65 2.987-.971 4.723-.971 2.782 0 5.223.689 7.318 2.067 2.098 1.375 3.697 3.343 4.808 5.914h-4.177c-.796-1.394-1.831-2.473-3.111-3.251-1.267-.772-2.755-1.158-4.457-1.158a7.56 7.56 0 0 0-2.82.537 6.944 6.944 0 0 0-2.359 1.553C.94-8.646.394-7.817-.014-6.845c-.404.976-.601 2.082-.594 3.32h20.091c.229 2.133.097 4.036-.388 5.706" transform="translate(534.326 45.818)"/><path style="fill:#999;fill-opacity:1;fill-rule:nonzero;stroke:none" d="m0 0-3.188 17.952h-4.078L-14.293 0l-3.183 17.952h-4.129l4.586-23.891h4.088l7.06 18.279 3.149-18.279h4.127l9.7 23.891H6.978z" transform="translate(597.867 37.33)"/><path style="fill:#999;fill-opacity:1;fill-rule:nonzero;stroke:none" d="M0 0h3.941l2.558 23.892H2.555z" transform="translate(613.008 31.39)"/><path style="fill:#999;fill-opacity:1;fill-rule:nonzero;stroke:none" d="M0 0h3.945l.504 4.687H.504z" transform="translate(615.947 58.902)"/><path style="fill:#999;fill-opacity:1;fill-rule:nonzero;stroke:none" d="M0 0c-.647.143-1.207.401-1.676.79-.467.385-.815.922-1.034 1.598-.219.684-.277 1.552-.166 2.599l1.224 11.415h5.421l.405 3.757h-5.428l.547 5.108h-3.945l-2.165-20.28c-.161-1.512-.075-2.853.273-4.01.348-1.16.891-2.119 1.642-2.879.748-.757 1.682-1.294 2.808-1.599 1.129-.312 2.4-.389 3.807-.231l.385 3.617A7.082 7.082 0 0 0 0 0" transform="translate(633.75 35.123)"/><path style="fill:#999;fill-opacity:1;fill-rule:nonzero;stroke:none" d="M0 0c-.687.895-1.581 1.593-2.669 2.091-1.096.494-2.367.739-3.822.739-1.425 0-2.741-.268-3.96-.81a10.039 10.039 0 0 1-3.182-2.205l1.395 13.039h-3.946l-3.689-34.52h3.94l1.563 14.612c.097.899.345 1.726.733 2.482.389.76.89 1.421 1.511 1.974a6.99 6.99 0 0 0 2.131 1.324 6.787 6.787 0 0 0 2.561.487c1.945 0 3.343-.597 4.189-1.788.852-1.189 1.178-2.715.979-4.571l-1.555-14.52H.071L1.612-7.284c.158 1.488.106 2.845-.164 4.082C1.175-1.964.699-.898 0 0" transform="translate(662.531 53.057)"/><path style="fill:#999;fill-opacity:1;fill-rule:nonzero;stroke:none" d="M0 0a9.96 9.96 0 0 0-2.037-2.811 10.144 10.144 0 0 0-2.779-1.877 7.672 7.672 0 0 0-3.207-.698c-1.116 0-2.136.233-3.057.698a7.17 7.17 0 0 0-2.356 1.877c-.638.791-1.11 1.725-1.413 2.811-.302 1.082-.389 2.224-.261 3.429.134 1.24.467 2.41 1.006 3.504a10.425 10.425 0 0 0 2.015 2.854 9.911 9.911 0 0 0 2.763 1.928 7.466 7.466 0 0 0 3.209.719c1.115 0 2.132-.238 3.054-.719A7.583 7.583 0 0 0-.691 9.787C-.037 8.984.441 8.032.74 6.933c.303-1.094.386-2.264.251-3.504A10.068 10.068 0 0 0 0 0m2.435 12.339a10.12 10.12 0 0 1-3.519 2.716c-1.398.663-2.947.996-4.645.996a11.97 11.97 0 0 1-4.837-.996 14.006 14.006 0 0 1-4.099-2.716 14.652 14.652 0 0 1-2.981-4.01 14.04 14.04 0 0 1-1.455-4.9c-.183-1.73-.044-3.344.412-4.849.46-1.498 1.17-2.811 2.131-3.94a10.368 10.368 0 0 1 3.519-2.673c1.384-.651 2.925-.972 4.63-.972 1.697 0 3.32.321 4.856.972A13.584 13.584 0 0 1 .543-5.36a15.017 15.017 0 0 1 2.95 3.94 13.562 13.562 0 0 1 1.44 4.849c.187 1.733.056 3.364-.397 4.9-.46 1.53-1.162 2.87-2.101 4.01" transform="translate(690.678 39.836)"/><path style="fill:#999;fill-opacity:1;fill-rule:nonzero;stroke:none" d="M0 0a6.693 6.693 0 0 0-.752-2.481 7.135 7.135 0 0 0-1.532-1.974A6.87 6.87 0 0 0-6.885-6.22c-1.915 0-3.316.572-4.199 1.721-.883 1.143-1.222 2.672-1.017 4.593l1.559 14.565h-3.896L-15.974.278c-.162-1.488-.101-2.836.167-4.057.27-1.227.756-2.283 1.449-3.185.687-.894 1.581-1.589 2.672-2.084 1.092-.494 2.367-.744 3.822-.744 1.48 0 2.838.281 4.076.834a9.898 9.898 0 0 1 3.22 2.324l-.278-2.598h3.804l2.558 23.891H1.57z" transform="translate(718.855 40.623)"/><path style="fill:#999;fill-opacity:1;fill-rule:nonzero;stroke:none" d="M0 0c-.646.143-1.207.401-1.679.79-.467.385-.811.922-1.036 1.598-.22.684-.272 1.552-.16 2.599l1.219 11.415h5.425l.404 3.757h-5.426l.546 5.108h-3.941l-2.168-20.28c-.164-1.512-.075-2.853.268-4.01.352-1.16.898-2.119 1.642-2.879.752-.757 1.686-1.294 2.812-1.599 1.129-.312 2.397-.389 3.803-.231l.389 3.617A7.066 7.066 0 0 0 0 0" transform="translate(738.568 35.123)"/><path style="fill:#999;fill-opacity:1;fill-rule:nonzero;stroke:none" d="M0 0a9.556 9.556 0 0 0 1.481 2.739A10.562 10.562 0 0 0 3.557 4.78c.752.558 1.555.98 2.413 1.272a7.57 7.57 0 0 0 2.527.445c.863 0 1.69-.157 2.479-.465a6.672 6.672 0 0 0 2.105-1.323 7.557 7.557 0 0 0 1.571-2.066c.422-.799.71-1.684.849-2.643zm19.102 2.181c-.487 1.671-1.238 3.093-2.241 4.27a9.993 9.993 0 0 1-3.582 2.689c-1.39.62-2.853.928-4.401.928a11.9 11.9 0 0 1-4.794-.996A14.24 14.24 0 0 1-.006 6.38 14.619 14.619 0 0 1-3.01 2.392a13.658 13.658 0 0 1-1.475-4.895c-.188-1.764-.047-3.403.427-4.921.466-1.516 1.191-2.833 2.175-3.944.979-1.111 2.175-1.995 3.592-2.648 1.414-.65 2.988-.971 4.72-.971 2.782 0 5.223.689 7.321 2.067 2.096 1.375 3.699 3.343 4.806 5.914h-4.174c-.8-1.394-1.835-2.473-3.111-3.251-1.271-.772-2.759-1.158-4.456-1.158-.992 0-1.938.183-2.821.537a6.921 6.921 0 0 0-2.363 1.553C.944-8.646.397-7.817-.006-6.845c-.404.976-.606 2.082-.595 3.32H19.49c.225 2.133.097 4.036-.388 5.706" transform="translate(767.94 45.818)"/><path style="fill:#999;fill-opacity:1;fill-rule:nonzero;stroke:none" d="M0 0h-4.823l-6.482-8.535L-15.963 0h-4.824l6.746-11.549-9.857-12.343h4.828l7.12 9.327 5.125-9.327h4.828l-7.262 12.343z" transform="translate(814.661 55.282)"/><path style="fill:#999;fill-opacity:1;fill-rule:nonzero;stroke:none" d="M0 0a9.921 9.921 0 0 0 2.759 1.928 7.489 7.489 0 0 0 3.213.718c1.574 0 2.909-.402 3.994-1.204 1.096-.808 1.906-1.856 2.449-3.158h4.223c-.275 1.203-.711 2.3-1.318 3.272a9.754 9.754 0 0 1-2.24 2.506 10.3 10.3 0 0 1-3.028 1.624c-1.129.383-2.367.578-3.696.578a11.81 11.81 0 0 1-4.749-.996 14.307 14.307 0 0 1-4.089-2.693 14.696 14.696 0 0 1-3.003-3.988 13.643 13.643 0 0 1-1.473-4.895c-.188-1.733-.045-3.359.43-4.875.47-1.511 1.184-2.836 2.146-3.964A10.408 10.408 0 0 1-.86-17.82c1.383-.651 2.898-.972 4.54-.972 2.688 0 5.089.728 7.21 2.182 2.124 1.455 3.708 3.385 4.774 5.799h-4.222a9.557 9.557 0 0 0-3.099-3.158c-1.273-.802-2.703-1.204-4.279-1.204-1.114 0-2.135.233-3.058.697a6.946 6.946 0 0 0-2.349 1.903c-.642.803-1.114 1.742-1.416 2.808-.304 1.065-.389 2.218-.255 3.457.131 1.24.459 2.394.995 3.48A10.47 10.47 0 0 0 0 0" transform="translate(825.12 49.623)"/><path style="fill:#999;fill-opacity:1;fill-rule:nonzero;stroke:none" d="M0 0a9.613 9.613 0 0 0 1.474 2.739c.631.803 1.32 1.483 2.075 2.041a8.99 8.99 0 0 0 2.412 1.272 7.615 7.615 0 0 0 2.531.445 6.739 6.739 0 0 0 4.589-1.788 7.502 7.502 0 0 0 1.559-2.066A8.134 8.134 0 0 0 15.496 0zm19.093 2.181c-.482 1.671-1.229 3.093-2.232 4.27a10.028 10.028 0 0 1-3.587 2.689c-1.386.62-2.852.928-4.401.928-1.667 0-3.268-.333-4.793-.996A14.374 14.374 0 0 1-.015 6.38a14.926 14.926 0 0 1-3.004-3.988 13.748 13.748 0 0 1-1.468-4.895c-.19-1.764-.049-3.403.423-4.921.471-1.516 1.196-2.833 2.172-3.944a10.77 10.77 0 0 1 3.593-2.648c1.418-.65 2.992-.971 4.723-.971 2.786 0 5.228.689 7.317 2.067 2.098 1.375 3.699 3.343 4.814 5.914h-4.181c-.792-1.394-1.828-2.473-3.107-3.251-1.272-.772-2.755-1.158-4.46-1.158-.993 0-1.931.183-2.822.537a6.94 6.94 0 0 0-2.358 1.553C.938-8.646.397-7.817-.01-6.845c-.409.976-.606 2.082-.595 3.32h20.086c.23 2.133.102 4.036-.388 5.706" transform="translate(851.509 45.818)"/><path style="fill:#999;fill-opacity:1;fill-rule:nonzero;stroke:none" d="M0 0a11.185 11.185 0 0 0-2-2.854 8.942 8.942 0 0 0-2.733-1.924 7.697 7.697 0 0 0-3.205-.698c-1.116 0-2.136.233-3.059.698a7.116 7.116 0 0 0-2.371 1.924c-.658.82-1.14 1.772-1.459 2.854-.318 1.082-.407 2.244-.276 3.483a9.775 9.775 0 0 0 1.017 3.433 10.513 10.513 0 0 0 2.065 2.828 9.856 9.856 0 0 0 2.782 1.905 7.722 7.722 0 0 0 3.208.695c1.11 0 2.125-.234 3.055-.695A6.648 6.648 0 0 0-.654 9.744C-.025 8.94.438 7.999.741 6.916a9.204 9.204 0 0 0 .258-3.433A10.31 10.31 0 0 0 0 0m2.498 12.296c-.931 1.147-2.093 2.043-3.496 2.693-1.396.647-2.95.972-4.645.972-1.768 0-3.42-.434-4.969-1.298-1.547-.864-2.805-1.901-3.766-3.11l.408 3.803h-3.802l-3.695-34.518h3.942l1.521 14.244c.744-1.174 1.775-2.164 3.096-2.971 1.32-.803 2.846-1.206 4.581-1.206 1.697 0 3.321.322 4.857.972A13.124 13.124 0 0 1 .603-5.428a14.82 14.82 0 0 1 2.908 4.01 14.308 14.308 0 0 1 1.432 4.901c.184 1.699.049 3.305-.388 4.823-.445 1.513-1.125 2.843-2.057 3.99" transform="translate(897.769 39.926)"/><path style="fill:#999;fill-opacity:1;fill-rule:nonzero;stroke:none" d="M0 0c-.657.143-1.212.401-1.682.79-.472.385-.815.922-1.033 1.598-.224.684-.281 1.552-.168 2.599l1.219 11.415h5.433l.404 3.757H-1.26l.546 5.108h-3.941l-2.169-20.28c-.161-1.512-.072-2.853.276-4.01.344-1.16.893-2.119 1.637-2.879.753-.757 1.688-1.294 2.817-1.599 1.121-.312 2.39-.389 3.798-.231l.389 3.617A7.032 7.032 0 0 0 0 0" transform="translate(916.466 35.123)"/><path style="fill:#999;fill-opacity:1;fill-rule:nonzero;stroke:none" d="M0 0h3.945l.505 4.687H.505z" transform="translate(928.352 58.902)"/><path style="fill:#999;fill-opacity:1;fill-rule:nonzero;stroke:none" d="M0 0h3.945L6.5 23.892H2.554z" transform="translate(925.414 31.39)"/><path style="fill:#999;fill-opacity:1;fill-rule:nonzero;stroke:none" d="M0 0a9.81 9.81 0 0 0-2.038-2.811 10.075 10.075 0 0 0-2.774-1.877 7.681 7.681 0 0 0-3.209-.698c-1.115 0-2.131.233-3.059.698a7.195 7.195 0 0 0-2.349 1.877A7.594 7.594 0 0 0-14.842 0c-.305 1.082-.388 2.224-.262 3.429.13 1.24.467 2.41 1.002 3.504a10.355 10.355 0 0 0 2.02 2.854 9.893 9.893 0 0 0 2.756 1.928 7.486 7.486 0 0 0 3.212.719c1.115 0 2.133-.238 3.055-.719A7.534 7.534 0 0 0-.691 9.787C-.034 8.984.449 8.032.74 6.933c.307-1.094.385-2.264.254-3.504A9.962 9.962 0 0 0 0 0m2.434 12.339c-.942 1.145-2.117 2.052-3.511 2.716-1.399.663-2.95.996-4.652.996a12 12 0 0 1-4.838-.996 14.053 14.053 0 0 1-4.095-2.716 14.611 14.611 0 0 1-2.981-4.01 13.977 13.977 0 0 1-1.455-4.9c-.182-1.73-.048-3.344.412-4.849.46-1.498 1.166-2.811 2.128-3.94a10.452 10.452 0 0 1 3.518-2.673c1.389-.651 2.929-.972 4.63-.972s3.329.321 4.861.972A13.505 13.505 0 0 1 .538-5.36a14.776 14.776 0 0 1 2.955 3.94 13.636 13.636 0 0 1 1.45 4.849c.184 1.733.049 3.364-.411 4.9-.452 1.53-1.151 2.87-2.098 4.01" transform="translate(957.562 39.836)"/><path style="fill:#999;fill-opacity:1;fill-rule:nonzero;stroke:none" d="M0 0c-.27 1.238-.748 2.304-1.444 3.202-.691.895-1.584 1.593-2.674 2.091-1.091.494-2.366.739-3.817.739-1.455 0-2.812-.285-4.061-.859a9.935 9.935 0 0 1-3.241-2.34l.279 2.595h-3.808l-2.552-23.892h3.945l1.56 14.612c.095.899.339 1.726.728 2.482A6.752 6.752 0 0 0-13.57.604c.613.56 1.327 1 2.131 1.324a6.772 6.772 0 0 0 2.561.487c1.914 0 3.302-.597 4.17-1.788.86-1.189 1.196-2.715.994-4.571l-1.547-14.52h3.892L.169-4.082C.324-2.594.273-1.237 0 0" transform="translate(990.394 49.855)"/><path style="fill:#558b01;fill-opacity:1;fill-rule:nonzero;stroke:none" d="M0 0c-.846-7.905-7.943-14.319-15.855-14.319-7.906 0-13.63 6.414-12.786 14.319.85 7.91 7.95 14.32 15.859 14.32C-4.877 14.32.852 7.91 0 0" transform="translate(537.738 185.691)"/><path style="fill:#558b01;fill-opacity:1;fill-rule:nonzero;stroke:none" d="m0 0-3.653-4.607-10.336-13.044 11.933-20.408h23.999zm-30.651-.064-30.038-37.995h24.002l16.255 20.515-7.452 12.746z" transform="translate(158.825 117.458)"/><path style="fill:#558b01;fill-opacity:1;fill-rule:nonzero;stroke:none" d="m0 0-12.976 22.504h-24.668l23.565-40.313 10.224-17.489 14.011 17.681L24.612.593C138.596 133.6 333.9 66.318 353.487 59.024 102.123 152.612 0 0 0 0" transform="translate(145.92 139.847)"/><path style="fill:#558b01;fill-opacity:1;fill-rule:nonzero;stroke:none" d="M0 0c.557-.194 1.096-.369 1.653-.565 0 0-.579.205-1.653.565" transform="translate(499.408 198.871)"/></g></svg>