<svg version="1.0" width="300.000000pt" height="300.000000pt" viewBox="0 0 300.000000 300.000000" preserveAspectRatio="xMidYMid meet" xmlns="http://www.w3.org/2000/svg">
  <defs></defs>
  <g transform="translate(0.000000,300.000000) scale(0.100000,-0.100000)" fill="#000000" stroke="none">
    <path d="M 315.504 2982.386 C 349.504 2992.386 635.504 2995.386 1507.504 2995.386 C 2615.504 2996.386 2655.504 2995.386 2716.504 2977.386 C 2845.504 2936.386 2946.504 2836.386 2985.504 2708.386 C 3004.504 2646.386 3005.504 2612.386 3005.504 1496.386 C 3005.504 387.386 3004.504 346.386 2986.504 285.386 C 2945.504 156.386 2845.504 55.386 2717.504 16.386 C 2655.504 -2.614 2621.504 -3.614 1505.504 -3.614 C 389.504 -3.614 355.504 -2.614 293.504 16.386 C 165.504 55.386 65.504 156.386 24.504 285.386 C 6.504 346.386 5.504 386.386 5.504 1489.386 C 5.504 2234.386 9.504 2646.386 16.504 2676.386 C 49.504 2821.386 168.504 2942.386 315.504 2982.386 Z" style="fill: rgb(85, 139, 1);"></path>
    <path d="M 2482.419 2557.483 L 2488.419 2594.483 L 1869.419 2593.483 C 1232.419 2592.483 1174.419 2589.483 1067.419 2550.483 C 897.419 2488.483 750.419 2362.483 677.419 2213.483 C 631.419 2120.483 591.419 1978.483 581.419 1869.483 C 577.419 1831.483 556.419 1633.483 534.419 1429.483 C 479.419 913.483 483.419 812.483 561.419 664.483 C 612.419 567.483 688.419 493.483 789.419 444.483 C 927.419 376.483 947.419 374.483 1636.419 374.483 L 2245.419 374.483 L 2249.419 397.483 C 2252.419 409.483 2261.419 491.483 2270.419 579.483 C 2278.419 667.483 2287.419 751.483 2290.419 766.483 L 2294.419 793.483 L 1682.419 796.483 L 1070.419 799.483 L 1020.419 824.483 C 927.419 870.483 909.419 947.483 936.419 1184.483 L 948.419 1284.483 L 1562.419 1284.483 C 2044.419 1284.483 2177.419 1287.483 2180.419 1297.483 C 2182.419 1303.483 2191.419 1374.483 2200.419 1454.483 C 2208.419 1534.483 2218.419 1618.483 2221.419 1642.483 L 2226.419 1684.483 L 1611.419 1684.483 L 995.419 1684.483 L 995.419 1709.483 C 995.419 1766.483 1017.419 1933.483 1031.419 1984.483 C 1055.419 2069.483 1088.419 2112.483 1153.419 2142.483 L 1210.419 2169.483 L 1826.419 2172.483 L 2441.419 2175.483 L 2459.419 2347.483 C 2468.419 2442.483 2479.419 2536.483 2482.419 2557.483 Z" style="fill: rgb(237, 239, 233);"></path>
  </g>
</svg>